<svg xmlns="http://www.w3.org/2000/svg" version="1.1" xmlns:xlink="http://www.w3.org/1999/xlink" width="512" height="512" x="0" y="0" viewBox="0 0 512 512" style="enable-background:new 0 0 512 512" xml:space="preserve" class=""><g><path fill-rule="evenodd" d="M293.822 160.662H238V222.6a5.486 5.486 0 0 1-5.486 5.486h-61.939v55.828h61.934A5.486 5.486 0 0 1 238 289.4v61.934h55.827V289.4a5.486 5.486 0 0 1 5.486-5.486h61.934v-55.833h-61.939a5.486 5.486 0 0 1-5.486-5.486zm-61.313-10.972h66.8a5.486 5.486 0 0 1 5.486 5.486v61.933h61.934a5.486 5.486 0 0 1 5.486 5.486v66.8a5.486 5.486 0 0 1-5.486 5.486h-61.935v61.934a5.486 5.486 0 0 1-5.486 5.486h-66.8a5.486 5.486 0 0 1-5.486-5.486v-61.934h-61.933a5.486 5.486 0 0 1-5.489-5.481v-66.8a5.486 5.486 0 0 1 5.486-5.486h61.934v-61.938a5.486 5.486 0 0 1 5.486-5.486zm-70.383 304.331-6.258 8.708a8.557 8.557 0 0 1-10.862 2.685c-37.568-18.663-71.239-60.97-92.866-108.877S21.057 255.388 31.911 214.851A8.526 8.526 0 0 1 41.1 208.5l39.632 3.959a8.609 8.609 0 0 1 7.767 8.5 215.138 215.138 0 0 0 1.536 23.74 8.01 8.01 0 0 1-1.586 6.093l-17.233 23.736a19.183 19.183 0 0 0-3.14 16.284 310.782 310.782 0 0 0 43.772 97.232 19.07 19.07 0 0 0 14.367 8.457l29.265 2.732a8.239 8.239 0 0 1 5.618 2.838 217.945 217.945 0 0 0 16.754 16.86l.01-.01a8.6 8.6 0 0 1 1.251 11.465l-16.663 23.185a5.41 5.41 0 0 0-.324.45zM85.344 132.634a5.474 5.474 0 1 1-9.043-6.172 229.651 229.651 0 0 1 249.021-92.218C447.779 67.056 520.468 192.965 487.66 315.409 450.691 453.382 298.072 524.4 168.485 463.9c-4.278 5.952-7.068 10.866-14.919 12.815a19.488 19.488 0 0 1-13.4-1.49c-39.926-19.835-75.431-64.178-98.009-114.192S9.8 255.071 21.326 212.022a19.5 19.5 0 0 1 20.848-14.408l39.631 3.958a19.49 19.49 0 0 1 17.625 19.306 208.005 208.005 0 0 0 1.492 22.54 19.2 19.2 0 0 1-3.6 13.807l-17.235 23.732a8.2 8.2 0 0 0-1.382 7.2 299.918 299.918 0 0 0 42.186 93.718 8.263 8.263 0 0 0 6.31 3.742l29.265 2.732a18.957 18.957 0 0 1 12.776 6.438 205.857 205.857 0 0 0 15.939 16l-.009.011a19.489 19.489 0 0 1 2.813 25.973l-13 18.083a218.573 218.573 0 0 0 200.225-9.524c104.655-60.49 140.391-194.211 80.031-298.64a218.693 218.693 0 0 0-369.9-14.057z" fill="#ffffff" opacity="1" data-original="#000000" class=""></path></g></svg>